<mxfile host="app.diagrams.net" agent="Mozilla/5.0 (Macintosh; Intel Mac OS X 10_15_7) AppleWebKit/537.36 (KHTML, like Gecko) Chrome/133.0.0.0 Safari/537.36" version="26.0.16">
  <diagram name="Page-1" id="toyqWjw3-tFAEOU__Un6">
    <mxGraphModel grid="1" page="1" gridSize="10" guides="1" tooltips="1" connect="1" arrows="1" fold="1" pageScale="1" pageWidth="827" pageHeight="1169" math="0" shadow="0">
      <root>
        <mxCell id="0" />
        <mxCell id="1" parent="0" />
        <mxCell id="SpyZkMs1lM7mogaTS6Ty-48" value="&lt;font style=&quot;font-size: 18px;&quot;&gt;API Adaptor&lt;/font&gt;" style="rounded=0;whiteSpace=wrap;html=1;verticalAlign=bottom;" vertex="1" parent="1">
          <mxGeometry x="570" y="140" width="400" height="200" as="geometry" />
        </mxCell>
        <mxCell id="SpyZkMs1lM7mogaTS6Ty-1" value="" style="edgeStyle=orthogonalEdgeStyle;rounded=0;exitX=0;exitY=0.5;endArrow=none;dashed=0;html=1;strokeColor=#808080;strokeWidth=2;" edge="1" parent="1" source="SpyZkMs1lM7mogaTS6Ty-3" target="SpyZkMs1lM7mogaTS6Ty-2">
          <mxGeometry relative="1" as="geometry" />
        </mxCell>
        <mxCell id="SpyZkMs1lM7mogaTS6Ty-2" value="" style="strokeWidth=2;dashed=0;align=center;fontSize=8;shape=ellipse;fillColor=#808080;strokeColor=none;" vertex="1" parent="1">
          <mxGeometry x="-80" y="195" width="12" height="12" as="geometry" />
        </mxCell>
        <mxCell id="SpyZkMs1lM7mogaTS6Ty-3" value="D" style="strokeWidth=2;dashed=0;align=center;fontSize=8;shape=rect;fillColor=#C7A0FF;fontStyle=1;whiteSpace=wrap;html=1;" vertex="1" parent="1">
          <mxGeometry x="-64" y="213" width="12" height="12" as="geometry" />
        </mxCell>
        <mxCell id="SpyZkMs1lM7mogaTS6Ty-18" style="edgeStyle=orthogonalEdgeStyle;rounded=0;orthogonalLoop=1;jettySize=auto;html=1;entryX=0;entryY=0.5;entryDx=0;entryDy=0;exitX=1;exitY=0.5;exitDx=0;exitDy=0;exitPerimeter=0;" edge="1" parent="1" source="SpyZkMs1lM7mogaTS6Ty-21" target="SpyZkMs1lM7mogaTS6Ty-11">
          <mxGeometry relative="1" as="geometry" />
        </mxCell>
        <mxCell id="SpyZkMs1lM7mogaTS6Ty-4" value="" style="rounded=0;whiteSpace=wrap;html=1;strokeColor=none;" vertex="1" parent="1">
          <mxGeometry x="-100" y="125" width="80" height="170" as="geometry" />
        </mxCell>
        <mxCell id="SpyZkMs1lM7mogaTS6Ty-5" value="" style="edgeStyle=orthogonalEdgeStyle;rounded=0;exitX=0;exitY=0.5;endArrow=none;dashed=0;html=1;strokeColor=#808080;strokeWidth=2;" edge="1" parent="1" source="SpyZkMs1lM7mogaTS6Ty-7" target="SpyZkMs1lM7mogaTS6Ty-6">
          <mxGeometry relative="1" as="geometry" />
        </mxCell>
        <mxCell id="SpyZkMs1lM7mogaTS6Ty-6" value="" style="strokeWidth=2;dashed=0;align=center;fontSize=8;shape=ellipse;fillColor=#808080;strokeColor=none;" vertex="1" parent="1">
          <mxGeometry x="-80" y="195" width="12" height="12" as="geometry" />
        </mxCell>
        <mxCell id="SpyZkMs1lM7mogaTS6Ty-7" value="D" style="strokeWidth=2;dashed=0;align=center;fontSize=8;shape=rect;fillColor=#C7A0FF;fontStyle=1;whiteSpace=wrap;html=1;" vertex="1" parent="1">
          <mxGeometry x="-64" y="213" width="12" height="12" as="geometry" />
        </mxCell>
        <mxCell id="SpyZkMs1lM7mogaTS6Ty-8" value="" style="edgeStyle=orthogonalEdgeStyle;rounded=0;exitX=0;exitY=0.5;endArrow=none;dashed=0;html=1;strokeColor=#808080;strokeWidth=2;" edge="1" parent="1" source="SpyZkMs1lM7mogaTS6Ty-10" target="SpyZkMs1lM7mogaTS6Ty-9">
          <mxGeometry relative="1" as="geometry" />
        </mxCell>
        <mxCell id="SpyZkMs1lM7mogaTS6Ty-9" value="" style="strokeWidth=2;dashed=0;align=center;fontSize=8;shape=ellipse;fillColor=#808080;strokeColor=none;" vertex="1" parent="1">
          <mxGeometry x="-80" y="145" width="12" height="12" as="geometry" />
        </mxCell>
        <mxCell id="SpyZkMs1lM7mogaTS6Ty-10" value="E" style="strokeWidth=2;dashed=0;align=center;fontSize=8;shape=rect;fillColor=#83BEFF;fontStyle=1;whiteSpace=wrap;html=1;" vertex="1" parent="1">
          <mxGeometry x="-64" y="163" width="12" height="12" as="geometry" />
        </mxCell>
        <mxCell id="SpyZkMs1lM7mogaTS6Ty-20" style="edgeStyle=orthogonalEdgeStyle;rounded=0;orthogonalLoop=1;jettySize=auto;html=1;" edge="1" parent="1" source="SpyZkMs1lM7mogaTS6Ty-11" target="SpyZkMs1lM7mogaTS6Ty-19">
          <mxGeometry relative="1" as="geometry" />
        </mxCell>
        <mxCell id="SpyZkMs1lM7mogaTS6Ty-11" value="&lt;font style=&quot;font-size: 16px;&quot;&gt;Accept Message &lt;br&gt;(Validation)&lt;/font&gt;" style="strokeWidth=2;dashed=0;align=center;fontSize=8;shape=rect;fillColor=#c0f5a9;verticalLabelPosition=bottom;verticalAlign=top;html=1;" vertex="1" parent="1">
          <mxGeometry x="210" y="180" width="110" height="60" as="geometry" />
        </mxCell>
        <mxCell id="SpyZkMs1lM7mogaTS6Ty-12" value="" style="strokeWidth=1;outlineConnect=0;dashed=0;align=center;html=1;fontSize=8;shape=mxgraph.eip.deadLetterChannel;verticalLabelPosition=bottom;labelBackgroundColor=#ffffff;verticalAlign=top;" vertex="1" parent="1">
          <mxGeometry x="215" y="90" width="100" height="20" as="geometry" />
        </mxCell>
        <mxCell id="SpyZkMs1lM7mogaTS6Ty-15" style="edgeStyle=orthogonalEdgeStyle;rounded=0;orthogonalLoop=1;jettySize=auto;html=1;entryX=0;entryY=1;entryDx=50;entryDy=0;entryPerimeter=0;" edge="1" parent="1" source="SpyZkMs1lM7mogaTS6Ty-11" target="SpyZkMs1lM7mogaTS6Ty-12">
          <mxGeometry relative="1" as="geometry" />
        </mxCell>
        <mxCell id="SpyZkMs1lM7mogaTS6Ty-17" value="Fail" style="edgeLabel;html=1;align=center;verticalAlign=middle;resizable=0;points=[];" connectable="0" vertex="1" parent="SpyZkMs1lM7mogaTS6Ty-15">
          <mxGeometry x="0.0278" y="-3" relative="1" as="geometry">
            <mxPoint as="offset" />
          </mxGeometry>
        </mxCell>
        <mxCell id="SpyZkMs1lM7mogaTS6Ty-28" style="edgeStyle=orthogonalEdgeStyle;rounded=0;orthogonalLoop=1;jettySize=auto;html=1;" edge="1" parent="1" source="SpyZkMs1lM7mogaTS6Ty-19" target="SpyZkMs1lM7mogaTS6Ty-27">
          <mxGeometry relative="1" as="geometry" />
        </mxCell>
        <mxCell id="SpyZkMs1lM7mogaTS6Ty-19" value="&lt;font style=&quot;font-size: 16px;&quot;&gt;Distribution List&lt;/font&gt;" style="html=1;strokeWidth=2;outlineConnect=0;dashed=0;align=center;fontSize=8;fillColor=#c0f5a9;verticalLabelPosition=bottom;verticalAlign=top;shape=mxgraph.eip.recipient_list;" vertex="1" parent="1">
          <mxGeometry x="380" y="180" width="110" height="60" as="geometry" />
        </mxCell>
        <mxCell id="SpyZkMs1lM7mogaTS6Ty-21" value="&lt;span style=&quot;font-size: 16px;&quot;&gt;Transform to&amp;nbsp;&lt;/span&gt;&lt;div&gt;&lt;span style=&quot;font-size: 16px;&quot;&gt;HL7 FHIR&lt;br&gt;(if required)&lt;/span&gt;&lt;/div&gt;" style="html=1;strokeWidth=2;outlineConnect=0;dashed=0;align=center;fontSize=8;shape=mxgraph.eip.message_translator;fillColor=#c0f5a9;verticalLabelPosition=bottom;verticalAlign=top;" vertex="1" parent="1">
          <mxGeometry x="40" y="180" width="110" height="60" as="geometry" />
        </mxCell>
        <mxCell id="SpyZkMs1lM7mogaTS6Ty-22" style="edgeStyle=orthogonalEdgeStyle;rounded=0;orthogonalLoop=1;jettySize=auto;html=1;entryX=0;entryY=0.5;entryDx=0;entryDy=0;entryPerimeter=0;" edge="1" parent="1" source="SpyZkMs1lM7mogaTS6Ty-4" target="SpyZkMs1lM7mogaTS6Ty-21">
          <mxGeometry relative="1" as="geometry" />
        </mxCell>
        <mxCell id="SpyZkMs1lM7mogaTS6Ty-45" style="edgeStyle=orthogonalEdgeStyle;rounded=0;orthogonalLoop=1;jettySize=auto;html=1;entryX=0;entryY=0.5;entryDx=0;entryDy=0;" edge="1" parent="1" source="SpyZkMs1lM7mogaTS6Ty-23" target="SpyZkMs1lM7mogaTS6Ty-38">
          <mxGeometry relative="1" as="geometry" />
        </mxCell>
        <mxCell id="SpyZkMs1lM7mogaTS6Ty-23" value="&lt;font style=&quot;font-size: 16px;&quot;&gt;Transform to HL7 v2&lt;br&gt;(if required)&lt;/font&gt;" style="html=1;strokeWidth=2;outlineConnect=0;dashed=0;align=center;fontSize=8;shape=mxgraph.eip.message_translator;fillColor=#c0f5a9;verticalLabelPosition=bottom;verticalAlign=top;" vertex="1" parent="1">
          <mxGeometry x="609" y="10" width="110" height="60" as="geometry" />
        </mxCell>
        <mxCell id="SpyZkMs1lM7mogaTS6Ty-24" style="edgeStyle=orthogonalEdgeStyle;rounded=0;orthogonalLoop=1;jettySize=auto;html=1;entryX=0;entryY=0.5;entryDx=0;entryDy=0;entryPerimeter=0;exitX=1;exitY=0.25;exitDx=0;exitDy=0;exitPerimeter=0;" edge="1" parent="1" source="SpyZkMs1lM7mogaTS6Ty-19" target="SpyZkMs1lM7mogaTS6Ty-23">
          <mxGeometry relative="1" as="geometry">
            <Array as="points">
              <mxPoint x="540" y="195" />
              <mxPoint x="540" y="40" />
            </Array>
          </mxGeometry>
        </mxCell>
        <mxCell id="SpyZkMs1lM7mogaTS6Ty-34" style="edgeStyle=orthogonalEdgeStyle;rounded=0;orthogonalLoop=1;jettySize=auto;html=1;" edge="1" parent="1" source="SpyZkMs1lM7mogaTS6Ty-27" target="SpyZkMs1lM7mogaTS6Ty-33">
          <mxGeometry relative="1" as="geometry" />
        </mxCell>
        <mxCell id="SpyZkMs1lM7mogaTS6Ty-27" value="&lt;font style=&quot;font-size: 16px;&quot;&gt;FHIR Server Adaptor&lt;br&gt;(process message)&lt;/font&gt;" style="fillColor=#c0f5a9;dashed=0;outlineConnect=0;strokeWidth=2;html=1;align=center;fontSize=8;verticalLabelPosition=bottom;verticalAlign=top;shape=mxgraph.eip.messaging_gateway;" vertex="1" parent="1">
          <mxGeometry x="629" y="180" width="110" height="60" as="geometry" />
        </mxCell>
        <mxCell id="SpyZkMs1lM7mogaTS6Ty-33" value="&lt;font style=&quot;font-size: 16px;&quot;&gt;FHIR Based Server&lt;br&gt;&lt;span style=&quot;font-size: 18px; text-wrap-mode: wrap;&quot;&gt;&amp;nbsp;(NHS England GOMS)&lt;/span&gt;&lt;/font&gt;" style="html=1;strokeWidth=2;outlineConnect=0;dashed=0;align=center;fontSize=8;verticalLabelPosition=bottom;verticalAlign=top;shape=mxgraph.eip.message_store;fillColor=#c0f5a9" vertex="1" parent="1">
          <mxGeometry x="816" y="180" width="115" height="60" as="geometry" />
        </mxCell>
        <mxCell id="SpyZkMs1lM7mogaTS6Ty-38" value="" style="rounded=0;whiteSpace=wrap;html=1;strokeColor=none;" vertex="1" parent="1">
          <mxGeometry x="807.5" y="-20" width="90" height="120" as="geometry" />
        </mxCell>
        <mxCell id="SpyZkMs1lM7mogaTS6Ty-49" value="&lt;font style=&quot;font-size: 16px;&quot;&gt;Canonical Model is based on HL7 FHIR but can be implemented in v2 or FHIR&lt;/font&gt;" style="text;html=1;align=center;verticalAlign=middle;whiteSpace=wrap;rounded=0;" vertex="1" parent="1">
          <mxGeometry x="200" y="320" width="300" height="50" as="geometry" />
        </mxCell>
        <mxCell id="GK4ACq8TZ_gD5xzpB5Gy-1" value="" style="edgeStyle=orthogonalEdgeStyle;rounded=0;exitX=0;exitY=0.5;endArrow=none;dashed=0;html=1;strokeColor=#808080;strokeWidth=2;" edge="1" parent="1" source="GK4ACq8TZ_gD5xzpB5Gy-3" target="GK4ACq8TZ_gD5xzpB5Gy-2">
          <mxGeometry relative="1" as="geometry" />
        </mxCell>
        <mxCell id="GK4ACq8TZ_gD5xzpB5Gy-2" value="" style="strokeWidth=2;dashed=0;align=center;fontSize=8;shape=ellipse;fillColor=#808080;strokeColor=none;" vertex="1" parent="1">
          <mxGeometry x="-78" y="245" width="12" height="12" as="geometry" />
        </mxCell>
        <mxCell id="GK4ACq8TZ_gD5xzpB5Gy-3" value="C" style="strokeWidth=2;dashed=0;align=center;fontSize=8;shape=rect;fillColor=#FF8080;fontStyle=1;whiteSpace=wrap;html=1;" vertex="1" parent="1">
          <mxGeometry x="-62" y="263" width="12" height="12" as="geometry" />
        </mxCell>
        <mxCell id="GK4ACq8TZ_gD5xzpB5Gy-5" value="" style="edgeStyle=orthogonalEdgeStyle;rounded=0;exitX=0;exitY=0.5;endArrow=none;dashed=0;html=1;strokeColor=#808080;strokeWidth=2;" edge="1" parent="1" source="GK4ACq8TZ_gD5xzpB5Gy-7" target="GK4ACq8TZ_gD5xzpB5Gy-6">
          <mxGeometry relative="1" as="geometry" />
        </mxCell>
        <mxCell id="GK4ACq8TZ_gD5xzpB5Gy-6" value="" style="strokeWidth=2;dashed=0;align=center;fontSize=8;shape=ellipse;fillColor=#808080;strokeColor=none;" vertex="1" parent="1">
          <mxGeometry x="832.5" y="25" width="12" height="12" as="geometry" />
        </mxCell>
        <mxCell id="GK4ACq8TZ_gD5xzpB5Gy-7" value="D" style="strokeWidth=2;dashed=0;align=center;fontSize=8;shape=rect;fillColor=#C7A0FF;fontStyle=1;whiteSpace=wrap;html=1;" vertex="1" parent="1">
          <mxGeometry x="848.5" y="43" width="12" height="12" as="geometry" />
        </mxCell>
        <mxCell id="GK4ACq8TZ_gD5xzpB5Gy-8" value="" style="rounded=0;whiteSpace=wrap;html=1;strokeColor=none;" vertex="1" parent="1">
          <mxGeometry x="812.5" y="-45" width="80" height="170" as="geometry" />
        </mxCell>
        <mxCell id="GK4ACq8TZ_gD5xzpB5Gy-9" value="" style="edgeStyle=orthogonalEdgeStyle;rounded=0;exitX=0;exitY=0.5;endArrow=none;dashed=0;html=1;strokeColor=#808080;strokeWidth=2;" edge="1" parent="1" source="GK4ACq8TZ_gD5xzpB5Gy-11" target="GK4ACq8TZ_gD5xzpB5Gy-10">
          <mxGeometry relative="1" as="geometry" />
        </mxCell>
        <mxCell id="GK4ACq8TZ_gD5xzpB5Gy-10" value="" style="strokeWidth=2;dashed=0;align=center;fontSize=8;shape=ellipse;fillColor=#808080;strokeColor=none;" vertex="1" parent="1">
          <mxGeometry x="832.5" y="25" width="12" height="12" as="geometry" />
        </mxCell>
        <mxCell id="GK4ACq8TZ_gD5xzpB5Gy-11" value="D" style="strokeWidth=2;dashed=0;align=center;fontSize=8;shape=rect;fillColor=#C7A0FF;fontStyle=1;whiteSpace=wrap;html=1;" vertex="1" parent="1">
          <mxGeometry x="848.5" y="43" width="12" height="12" as="geometry" />
        </mxCell>
        <mxCell id="GK4ACq8TZ_gD5xzpB5Gy-12" value="" style="edgeStyle=orthogonalEdgeStyle;rounded=0;exitX=0;exitY=0.5;endArrow=none;dashed=0;html=1;strokeColor=#808080;strokeWidth=2;" edge="1" parent="1" source="GK4ACq8TZ_gD5xzpB5Gy-14" target="GK4ACq8TZ_gD5xzpB5Gy-13">
          <mxGeometry relative="1" as="geometry" />
        </mxCell>
        <mxCell id="GK4ACq8TZ_gD5xzpB5Gy-13" value="" style="strokeWidth=2;dashed=0;align=center;fontSize=8;shape=ellipse;fillColor=#808080;strokeColor=none;" vertex="1" parent="1">
          <mxGeometry x="832.5" y="-25" width="12" height="12" as="geometry" />
        </mxCell>
        <mxCell id="GK4ACq8TZ_gD5xzpB5Gy-14" value="E" style="strokeWidth=2;dashed=0;align=center;fontSize=8;shape=rect;fillColor=#83BEFF;fontStyle=1;whiteSpace=wrap;html=1;" vertex="1" parent="1">
          <mxGeometry x="848.5" y="-7" width="12" height="12" as="geometry" />
        </mxCell>
        <mxCell id="GK4ACq8TZ_gD5xzpB5Gy-15" value="" style="edgeStyle=orthogonalEdgeStyle;rounded=0;exitX=0;exitY=0.5;endArrow=none;dashed=0;html=1;strokeColor=#808080;strokeWidth=2;" edge="1" parent="1" source="GK4ACq8TZ_gD5xzpB5Gy-17" target="GK4ACq8TZ_gD5xzpB5Gy-16">
          <mxGeometry relative="1" as="geometry" />
        </mxCell>
        <mxCell id="GK4ACq8TZ_gD5xzpB5Gy-16" value="" style="strokeWidth=2;dashed=0;align=center;fontSize=8;shape=ellipse;fillColor=#808080;strokeColor=none;" vertex="1" parent="1">
          <mxGeometry x="834.5" y="75" width="12" height="12" as="geometry" />
        </mxCell>
        <mxCell id="GK4ACq8TZ_gD5xzpB5Gy-17" value="C" style="strokeWidth=2;dashed=0;align=center;fontSize=8;shape=rect;fillColor=#FF8080;fontStyle=1;whiteSpace=wrap;html=1;" vertex="1" parent="1">
          <mxGeometry x="850.5" y="93" width="12" height="12" as="geometry" />
        </mxCell>
      </root>
    </mxGraphModel>
  </diagram>
</mxfile>
